<?xml version="1.0" encoding="UTF-8" standalone="no"?>
<svg
   xmlns:dc="http://purl.org/dc/elements/1.1/"
   xmlns:cc="http://creativecommons.org/ns#"
   xmlns:rdf="http://www.w3.org/1999/02/22-rdf-syntax-ns#"
   xmlns:svg="http://www.w3.org/2000/svg"
   xmlns="http://www.w3.org/2000/svg"
   viewBox="0 0 1600 1024"
   height="1024"
   width="1600"
   xml:space="preserve"
   id="svg2"
   version="1.1"><metadata
     id="metadata8"><rdf:RDF><cc:Work
         rdf:about=""><dc:format>image/svg+xml</dc:format><dc:type
           rdf:resource="http://purl.org/dc/dcmitype/StillImage" /></cc:Work></rdf:RDF></metadata><defs
     id="defs6"><clipPath
       id="clipPath22"
       clipPathUnits="userSpaceOnUse"><path
         id="path20"
         d="M 0,768 H 1200 V 0 H 0 Z" /></clipPath></defs><g
     transform="matrix(1.3333333,0,0,-1.3333333,0,1024)"
     id="g10"><g
       transform="translate(600.2891,587.6198)"
       id="g12"><path
         id="path14"
         style="fill:#ffd524;fill-opacity:1;fill-rule:nonzero;stroke:none"
         d="m 0,0 h -236.179 v -207.696 l 106.832,-106.832 h 236.179 v 207.696 z" /></g><g
       id="g16"><g
         clip-path="url(#clipPath22)"
         id="g18"><g
           transform="translate(643.97,306.0391)"
           id="g24"><path
             id="path26"
             style="fill:#000000;fill-opacity:1;fill-rule:nonzero;stroke:none"
             d="m 0,0 c 0,-8.461 -6.665,-15.221 -14.89,-15.221 h -5.814 v 8.556 h 5.814 c 3.545,0 6.476,3.025 6.476,6.665 V 30.82 H 0 Z" /></g><g
           transform="translate(677.4366,290.7711)"
           id="g28"><path
             id="path30"
             style="fill:#000000;fill-opacity:1;fill-rule:nonzero;stroke:none"
             d="m 0,0 h -6.665 c -5.767,0 -10.588,3.923 -12.384,9.17 l 7.941,2.789 c 0.709,-2.032 2.505,-3.403 4.443,-3.403 H 0 c 2.505,0 4.727,2.174 4.727,5.105 0,3.687 -4.207,4.396 -9.17,5.294 -6.902,1.229 -15.316,2.836 -15.316,13.424 0,7.374 5.767,13.661 13.094,13.661 H 0 c 5.814,0 10.636,-3.923 12.385,-9.17 L 4.443,34.128 C 3.782,36.114 1.985,37.484 0,37.484 h -6.665 c -2.458,0 -4.68,-2.174 -4.68,-5.105 0,-3.97 4.916,-4.443 10.4,-5.483 C 5.72,25.573 13.141,23.682 13.141,13.661 13.141,6.24 7.374,0 0,0" /></g><g
           transform="translate(391.2384,594.0513)"
           id="g32"><path
             id="path34"
             style="fill:#000000;fill-opacity:1;fill-rule:nonzero;stroke:none"
             d="M 0,0 C 0,3.943 -1.314,15.752 -17.061,15.752 -32.813,15.752 -34.122,3.943 -34.122,0 l 1.309,-1.304 h 31.499 z m -48.559,-6.561 c 0,18.38 9.185,34.121 31.498,34.121 22.308,0 31.498,-15.741 31.498,-34.121 v -3.933 l -1.314,-1.315 h -45.936 l -1.309,-1.314 c 0,-2.618 1.309,-15.741 18.37,-15.741 6.562,0 11.814,1.304 14.438,7.865 L 0,-19.684 h 10.499 l 1.31,-1.315 c -1.31,-10.494 -10.495,-19.684 -27.561,-19.684 -22.308,0 -32.807,14.437 -32.807,34.122" /></g><g
           transform="translate(460.8391,555.9969)"
           id="g36"><path
             id="path38"
             style="fill:#000000;fill-opacity:1;fill-rule:nonzero;stroke:none"
             d="m 0,0 -1.314,-1.314 h -9.185 L -11.814,0 -36.751,53.806 v 9.19 l 1.315,1.315 h 7.876 l 1.309,-1.315 19.69,-45.94 h 1.309 l 19.689,45.94 1.309,1.315 h 7.876 l 1.315,-1.315 v -9.19 z" /></g><g
           transform="translate(476.6337,488.3946)"
           id="g40"><path
             id="path42"
             style="fill:#000000;fill-opacity:1;fill-rule:nonzero;stroke:none"
             d="M 0,0 C 0,3.943 -1.314,15.752 -17.061,15.752 -32.813,15.752 -34.122,3.943 -34.122,0 l 1.309,-1.304 h 31.499 z m -48.559,-6.561 c 0,18.38 9.185,34.121 31.498,34.121 22.308,0 31.498,-15.741 31.498,-34.121 v -3.933 l -1.314,-1.315 h -45.936 l -1.309,-1.314 c 0,-2.618 1.309,-15.741 18.37,-15.741 6.562,0 11.814,1.304 14.438,7.865 L 0,-19.684 h 10.499 l 1.31,-1.315 c -1.31,-10.494 -10.495,-19.684 -27.561,-19.684 -22.308,0 -32.807,14.437 -32.807,34.122" /></g><g
           transform="translate(568.5476,449.0258)"
           id="g44"><path
             id="path46"
             style="fill:#000000;fill-opacity:1;fill-rule:nonzero;stroke:none"
             d="m 0,0 h -10.505 l -1.314,1.314 v 38.055 c 0,6.561 -2.618,15.752 -14.438,15.752 -11.808,0 -18.37,-6.562 -18.37,-22.314 V 1.314 L -45.941,0 h -10.494 l -1.314,1.314 v 62.997 l 1.314,1.314 h 9.19 l 1.304,-1.314 1.314,-5.247 h 1.315 c 0,0 5.247,7.865 18.37,7.865 18.381,0 26.256,-11.808 26.256,-27.56 l 0,-38.055 z" /></g><g
           transform="translate(601.3976,501.5282)"
           id="g48"><path
             id="path50"
             style="fill:#000000;fill-opacity:1;fill-rule:nonzero;stroke:none"
             d="m 0,0 -1.314,1.304 h -10.494 l -1.315,1.314 v 9.191 l 1.315,1.314 H -1.314 L 0,14.427 v 17.066 l 1.314,1.314 h 10.495 l 1.314,-1.314 V 14.427 l 1.314,-1.304 h 22.314 l 1.314,-1.314 V 2.618 L 36.751,1.304 H 14.437 L 13.123,0 v -26.257 c 0,-13.122 6.561,-15.741 13.123,-15.741 5.247,0 11.819,2.619 11.819,11.809 v 2.618 l 1.304,1.314 h 10.505 l 1.314,-1.314 v -2.618 C 51.188,-48.57 36.751,-53.817 26.246,-53.817 11.809,-53.817 0,-45.941 0,-26.257 Z" /></g><g
           transform="translate(332.0102,336.3691)"
           id="g52"><path
             id="path54"
             style="fill:#000000;fill-opacity:1;fill-rule:nonzero;stroke:none"
             d="m 0,0 h -60.378 l -1.304,1.314 v 9.191 l 1.304,1.304 h 24.942 l 1.314,1.314 v 65.625 l -1.314,1.315 h -18.381 l -1.304,1.303 v 9.191 l 1.304,1.314 h 31.504 l 1.314,-1.314 V 13.123 l 1.315,-1.314 H 0 L 1.304,10.505 V 1.314 Z" /></g><g
           transform="translate(380.6013,346.8739)"
           id="g56"><path
             id="path58"
             style="fill:#000000;fill-opacity:1;fill-rule:nonzero;stroke:none"
             d="M 0,0 C 11.809,0 19.684,7.865 19.684,22.303 19.684,36.74 11.809,44.616 0,44.616 h -1.314 c -11.809,0 -19.685,-7.876 -19.685,-22.313 C -20.999,7.865 -13.123,0 -1.314,0 Z m -1.314,-11.819 c -19.685,0 -32.808,13.123 -32.808,34.122 0,20.998 13.123,34.121 32.808,34.121 H 0 c 19.684,0 32.818,-13.123 32.818,-34.121 C 32.818,1.304 19.684,-11.819 0,-11.819 Z" /></g><g
           transform="translate(460.7068,346.8739)"
           id="g60"><path
             id="path62"
             style="fill:#000000;fill-opacity:1;fill-rule:nonzero;stroke:none"
             d="M 0,0 C 11.809,0 19.684,7.865 19.684,22.303 19.684,36.74 11.809,44.616 0,44.616 h -1.314 c -11.809,0 -19.685,-7.876 -19.685,-22.313 C -20.999,7.865 -13.123,0 -1.314,0 Z m -1.314,-11.819 c -19.685,0 -32.808,13.123 -32.808,34.122 0,20.998 13.123,34.121 32.808,34.121 H 0 c 19.684,0 32.818,-13.123 32.818,-34.121 C 32.818,1.304 19.684,-11.819 0,-11.819 Z" /></g><g
           transform="translate(542.3018,391.4897)"
           id="g64"><path
             id="path66"
             style="fill:#000000;fill-opacity:1;fill-rule:nonzero;stroke:none"
             d="m 0,0 c -10.505,0 -18.381,-6.561 -18.381,-22.313 0,-15.741 7.876,-22.303 18.381,-22.303 10.494,0 17.056,7.865 17.056,22.303 C 17.056,-7.876 10.494,0 0,0 m 1.314,-56.435 c -13.123,0 -18.38,7.876 -18.38,7.876 h -1.315 v -31.493 l -1.303,-1.314 h -10.505 l -1.315,1.314 V 9.19 l 1.315,1.315 h 9.19 l 1.315,-1.315 1.303,-5.247 h 1.315 c 0,0 5.257,7.866 18.38,7.866 18.37,0 28.875,-14.427 28.875,-34.122 0,-19.685 -10.505,-34.122 -28.875,-34.122" /></g><g
           transform="translate(576.4182,575.6813)"
           id="g68"><path
             id="path70"
             style="fill:#000000;fill-opacity:1;fill-rule:nonzero;stroke:none"
             d="m 0,0 h -72.187 l -1.304,1.314 v 9.191 l 1.304,1.304 H 0 L 1.314,10.505 V 1.314 Z" /></g></g></g></g></svg>
